<svg xmlns="http://www.w3.org/2000/svg" width="40" height="40" fill="none" viewBox="0 0 40 40">
    <path fill-rule="evenodd" d="M4 27.523c.062.003.124.005.187.005 1.312 0 2.155-.566 2.905-1.225l2.624-2.64-2.624-2.733c-.656-.66-1.593-1.225-2.905-1.225-.063 0-.125.002-.187.005v1.252c.062-.005.124-.007.187-.007.902 0 1.535.373 2.011.85l1.77 1.843-1.732 1.743c-.635.554-1.189.887-2.05.887-.062 0-.124-.002-.186-.007v1.252zm10.617 3.31c.041-.216.063-.439.063-.666 0-1.32-.563-2.168-1.219-2.922l-2.811-2.64c-.187 0-2.624 2.64-2.624 2.64-.656.754-1.218 1.602-1.218 2.922 0 .227.02.449.057.663l.135.003h1.148a2.49 2.49 0 0 1-.09-.666c0-.88.34-1.443.9-2.088l.013-.015.076-.082a109.968 109.968 0 0 1 1.59-1.674l1.921 1.804c.543.631.872 1.19.872 2.055 0 .228-.035.452-.1.666h1.287zm-2.32-11.632c.037-.037.076-.071.117-.103.51-.399.832-.961.832-1.938 0-1.37-1.114-2.52-2.592-2.52-1.518 0-2.686 1.19-2.686 2.52 0 .873.335 1.433.885 2.071l1.707 1.717 1.737-1.747zm-.856 2.634l-.881.886-.881-.886-1.743-1.753c-.656-.754-1.218-1.602-1.218-2.922 0-2.073 1.78-3.77 3.936-3.77 2.155 0 3.842 1.697 3.842 3.77 0 1.32-.469 2.262-1.312 2.922l-1.743 1.753zm8.083 1.64l.002-.06c.058-1.236-1.028-2.46-2.5-2.46-.86 0-1.414.333-2.049.887l-1.717 1.727 1.748 1.758c.555.559 1.093.857 2.018.857 1.38 0 2.498-1.143 2.498-2.709zm-5.403-2.545c.75-.66 1.593-1.225 2.905-1.225 2.155 0 3.842 1.79 3.748 3.77 0 2.168-1.593 3.959-3.748 3.959-1.312 0-2.155-.472-2.905-1.226l-2.624-2.639 2.624-2.639z" clip-rule="evenodd"/>
    <rect width="32" height="22.667" x="4" y="8.166" stroke-linecap="round" stroke-linejoin="round" stroke-miterlimit="10" stroke-width="1.25" rx="3"/>
    <path stroke-linecap="round" stroke-linejoin="round" stroke-miterlimit="10" stroke-width="1.25" d="M22.66 25.935h9.237M27.926 13.39l3.388 3.388-3.388 3.388"/>
</svg>
