<svg xmlns="http://www.w3.org/2000/svg" width="40" height="40" fill="none" viewBox="0 0 40 40">
    <rect width="19" height="15" x="10" y="14" fill="#fff" stroke="#A3B7BD" stroke-linecap="round" stroke-linejoin="round" stroke-width="1.5" rx="1"/>
    <path stroke="#A3B7BD" stroke-linecap="round" stroke-width="1.5" d="M14 24h11m-11-5h3.771"/>
    <circle cx="28" cy="14" r="6" fill="#fff"/>
    <path fill="#005826" d="M30.524 12.459c-.516 0-.847.22-1.142.477l-1.032 1.028 1.032 1.027c.295.294.626.477 1.142.477.848 0 1.475-.697 1.475-1.541.037-.77-.627-1.468-1.475-1.468z"/>
    <path fill="#72BF44" d="M25.474 12.459c-.847 0-1.474.697-1.474 1.541s.663 1.505 1.474 1.505c.516 0 .848-.22 1.143-.477L27.649 14l-1.032-1.064a1.572 1.572 0 0 0-1.143-.477z"/>
    <path fill="#00A651" d="M28.018 14.367c-.074 0-1.032 1.028-1.032 1.028-.258.293-.48.624-.48 1.137 0 .844.701 1.468 1.549 1.468s1.548-.66 1.548-1.468c0-.513-.221-.844-.48-1.137l-1.105-1.028z"/>
    <path fill="#B2D235" d="M28.018 10c-.848 0-1.548.66-1.548 1.468 0 .514.22.844.479 1.138l1.032 1.027 1.032-1.027c.332-.257.516-.624.516-1.138 0-.807-.663-1.468-1.511-1.468z"/>
</svg>
