<?xml version="1.0" encoding="UTF-8"?>
<svg width="25px" height="25px" viewBox="0 0 25 25" version="1.1" xmlns="http://www.w3.org/2000/svg" xmlns:xlink="http://www.w3.org/1999/xlink">
    <title>logo — копия</title>
    <desc>Created with Sketch.</desc>
    <defs></defs>
    <g id="Page-1" stroke="none" stroke-width="1" fill="none" fill-rule="evenodd">
        <g id="logo-—-копия" transform="translate(-1.000000, -1.000000)" fill-rule="nonzero">
            <path d="M21,10.58 C21.6975728,10.5876577 22.3625606,10.8763945 22.8444257,11.3808471 C23.3262909,11.8852996 23.5842835,12.562808 23.56,13.26 C23.5842835,13.957192 23.3262909,14.6347004 22.8444257,15.1391529 C22.3625606,15.6436055 21.6975728,15.9323423 21,15.94 C20.1881886,15.9601252 19.4101372,15.6151401 18.88,15 L17.1,13.23 L18.87,11.47 C19.4126543,10.8718158 20.193078,10.5457232 21,10.58 M21,8.58 C19.6799375,8.56900789 18.4150918,9.10901366 17.51,10.07 L14.41,13.27 L17.51,16.46 C18.4161216,17.4183206 19.6812068,17.9548038 21,17.94 C22.2287456,17.9349274 23.4039187,17.4363309 24.2614242,16.5562595 C25.1189297,15.676188 25.5868392,14.4884629 25.56,13.26 C25.5895645,12.0298248 25.1228646,10.8395008 24.2650616,9.95724289 C23.4072586,9.07498497 22.2305202,8.57501829 21,8.57" id="Shape" fill="#005826"></path>
            <path d="M5.56,10.58 C6.3531027,10.56429 7.11326816,10.8968624 7.64,11.49 L9.42,13.26 L7.65,15 C7.12202732,15.5984148 6.35789533,15.9347791 5.56,15.92 C4.86600539,15.9122157 4.20417024,15.6262245 3.72290089,15.1261555 C3.24163154,14.6260866 2.98119855,13.9537836 3,13.26 C2.97571653,12.562808 3.23370912,11.8852996 3.71557426,11.3808471 C4.1974394,10.8763945 4.86242724,10.5876577 5.56,10.58 M5.56,8.58 C4.3312544,8.58507259 3.15608132,9.08366907 2.2985758,9.96374052 C1.44107028,10.843812 0.973160794,12.0315371 1,13.26 C0.973160794,14.4884629 1.44107028,15.676188 2.2985758,16.5562595 C3.15608132,17.4363309 4.3312544,17.9349274 5.56,17.94 C6.86269773,17.9371452 8.10680106,17.3982748 9,16.45 L12.1,13.26 L9,10.06 C8.10680106,9.11172515 6.86269773,8.57285481 5.56,8.57" id="Shape" fill="#72BF44"></path>
            <path d="M13.26,17.09 L15,18.87 C15.6167187,19.4032427 15.9617215,20.1850043 15.94,21 C15.9407698,21.7002663 15.6546467,22.37028 15.1482765,22.8539769 C14.6419063,23.3376738 13.9594969,23.5928254 13.26,23.56 C12.5605031,23.5928254 11.8780937,23.3376738 11.3717235,22.8539769 C10.8653533,22.37028 10.5792302,21.7002663 10.58,21 C10.56429,20.2068973 10.8968624,19.4467318 11.49,18.92 L13.26,17.09 Z M13.26,14.36 C12.1317934,15.3244097 11.066294,16.359848 10.07,17.46 C9.09240484,18.3751427 8.54751073,19.6610928 8.57,21 C8.57507259,22.2287456 9.07366907,23.4039187 9.95374052,24.2614242 C10.833812,25.1189297 12.0215371,25.5868392 13.25,25.56 C14.4801752,25.5895645 15.6704992,25.1228646 16.5527571,24.2650616 C17.435015,23.4072586 17.9349817,22.2305202 17.94,21 C17.9522138,19.6796932 17.4120077,18.4143784 16.45,17.51 L13.26,14.36 Z" id="Shape" fill="#00A651"></path>
            <path d="M13.26,3 C13.957192,2.97571653 14.6347004,3.23370912 15.1391529,3.71557426 C15.6436055,4.1974394 15.9323423,4.86242724 15.94,5.56 C15.9481728,6.35791092 15.604278,7.11886974 15,7.64 L13.26,9.42 L11.49,7.65 C10.8915852,7.12202732 10.5552209,6.35789533 10.57,5.56 C10.5690941,4.8579098 10.8565789,4.18625989 11.3651693,3.70224823 C11.8737597,3.21823656 12.5588151,2.96434637 13.26,3 M13.26,1 C12.0298248,0.970435544 10.8395008,1.4371354 9.95724289,2.29493841 C9.07498497,3.15274142 8.57501829,4.32947984 8.57,5.56 C8.55900789,6.8800625 9.09901366,8.14490824 10.06,9.05 L13.25,12.15 L16.44,9.05 C17.4020077,8.1456216 17.9422138,6.88030679 17.93,5.56 C17.9248791,4.33302487 17.4276533,3.15941181 16.5497658,2.30220257 C15.6718783,1.44499333 14.4867487,0.975878239 13.26,1" id="Shape" fill="#B2D235"></path>
        </g>
        <animateTransform
                attributeType="xml"
                attributeName="transform"
                dur="1.5s"
                type="rotate"
                from="0 12.5 12.5"
                to="360 12.5 12.5"
                repeatCount="indefinite" />
    </g>
</svg>