<svg width="160" height="32" viewBox="0 0 160 32" xmlns="http://www.w3.org/2000/svg" xmlns:xlink="http://www.w3.org/1999/xlink">
<g id="Canvas" transform="translate(-1560 -4312)">
<g id="logo">
<g id="Vector">
<use xlink:href="#path0_fill" transform="translate(1576.11 4321.2)" fill="#005826"/>
</g>
<g id="Vector">
<use xlink:href="#path1_fill" transform="translate(1560 4321.2)" fill="#72BF44"/>
</g>
<g id="Vector">
<use xlink:href="#path2_fill" transform="translate(1569.29 4328.34)" fill="#00A651"/>
</g>
<g id="Vector">
<use xlink:href="#path3_fill" transform="translate(1569.15 4312)" fill="#B2D235"/>
</g>
<g id="Vector">
<use xlink:href="#path4_fill" transform="translate(1664.87 4337.55)" fill="#72BF44"/>
</g>
<g id="Vector">
<use xlink:href="#path5_fill" transform="translate(1617.76 4322.58)" fill="#005826"/>
</g>
<g id="Vector">
<use xlink:href="#path6_fill" transform="translate(1696.55 4322.58)" fill="#005826"/>
</g>
<g id="Vector">
<use xlink:href="#path7_fill" transform="translate(1676.75 4322.3)" fill="#005826"/>
</g>
<g id="Vector">
<use xlink:href="#path8_fill" transform="translate(1605.33 4322.58)" fill="#005826"/>
</g>
<g id="Vector">
<use xlink:href="#path9_fill" transform="translate(1641.66 4322.85)" fill="#005826"/>
</g>
<g id="Vector">
<use xlink:href="#path10_fill" transform="translate(1593.04 4319.55)" fill="#005826"/>
</g>
<g id="Vector">
<use xlink:href="#path11_fill" transform="translate(1686.31 4322.71)" fill="#005826"/>
</g>
<g id="Vector">
<use xlink:href="#path12_fill" transform="translate(1708.7 4322.85)" fill="#005826"/>
</g>
<g id="Vector">
<use xlink:href="#path13_fill" transform="translate(1653.26 4322.58)" fill="#005826"/>
</g>
<g id="Vector">
<use xlink:href="#path14_fill" transform="translate(1664.73 4322.58)" fill="#005826"/>
</g>
<g id="Vector">
<use xlink:href="#path15_fill" transform="translate(1629.64 4322.71)" fill="#005826"/>
</g>
<g id="Vector">
<use xlink:href="#path16_fill" transform="translate(1629.64 4327.24)" fill="#005826"/>
</g>
<g id="Vector">
<use xlink:href="#path17_fill" transform="translate(1629.64 4331.64)" fill="#005826"/>
</g>
</g>
</g>
<defs>
<path id="path0_fill" d="M 8.05633 2.4721C 9.83146 2.4721 11.1969 3.84549 11.1969 5.76824C 11.1969 7.55365 9.83146 9.06438 8.05633 9.06438C 7.1005 9.06438 6.28121 8.7897 5.59847 7.96567L 3.4137 5.76824L 5.59847 3.57082C 6.41776 2.74678 7.1005 2.4721 8.05633 2.4721ZM 8.05633 -2.61954e-07C 6.14466 -2.61954e-07 4.91573 0.824035 3.82334 1.78541L 2.60445e-07 5.6309L 3.82334 9.4764C 4.91573 10.5751 6.14466 11.2618 8.05633 11.2618C 11.1969 11.2618 13.5183 8.65236 13.5183 5.49356C 13.6548 2.60944 11.1969 -2.61954e-07 8.05633 -2.61954e-07Z"/>
<path id="path1_fill" d="M 5.46192 2.4721C 6.41775 2.4721 7.23704 2.74678 7.91978 3.57082L 10.1046 5.76824L 7.91978 7.96567C 7.23704 8.65236 6.5543 9.06438 5.46192 9.06438C 3.6868 9.06438 2.32132 7.69099 2.32132 5.76824C 2.45786 3.84549 3.82334 2.4721 5.46192 2.4721ZM 5.46192 -2.61954e-07C 2.32132 -2.61954e-07 0 2.60944 0 5.76824C 0 8.92704 2.45786 11.3991 5.46192 11.3991C 7.37359 11.3991 8.60252 10.5751 9.69491 9.61374L 13.5182 5.76824L 9.69491 1.78541C 8.73907 0.824035 7.37359 -2.61954e-07 5.46192 -2.61954e-07Z"/>
<path id="path2_fill" d="M 5.59847 3.29614L 7.78323 5.49356C 8.60252 6.3176 8.87562 7.00429 8.87562 8.10301C 8.87562 9.88842 7.51014 11.2618 5.59847 11.2618C 3.68679 11.2618 2.32132 9.88842 2.32132 8.10301C 2.32132 7.14163 2.59441 6.3176 3.4137 5.6309L 5.59847 3.29614ZM 5.59847 -5.23907e-07C 5.32537 -5.23907e-07 1.77512 3.8455 1.77512 3.8455C 0.819288 4.94421 2.60445e-07 6.18026 2.60445e-07 8.10301C 2.60445e-07 11.2618 2.59441 13.5966 5.73501 13.5966C 8.87562 13.5966 11.47 11.1245 11.47 8.10301C 11.47 6.18026 10.6507 4.94421 9.69491 3.8455L 5.59847 -5.23907e-07Z"/>
<path id="path3_fill" d="M 5.73501 2.4721C 7.51014 2.4721 9.01217 3.8455 9.01217 5.6309C 9.01217 6.59228 8.73907 7.41631 7.91978 8.10301L 5.73501 10.3004L 3.55025 8.10301C 2.73096 7.27897 2.45786 6.59228 2.45786 5.49357C 2.45786 3.8455 3.82334 2.4721 5.73501 2.4721ZM 5.73501 0C 2.59441 0 -2.60445e-07 2.4721 -2.60445e-07 5.49357C -2.60445e-07 7.41631 0.819288 8.65236 1.77512 9.75108L 5.59847 13.5966L 9.42181 9.75108C 10.6507 8.7897 11.3335 7.41631 11.3335 5.49357C 11.3335 2.4721 8.87562 0 5.73501 0Z"/>
<path id="path4_fill" d="M 3.68679 4.12017C 3.55025 4.66953 3.27715 4.94421 3.27715 5.08155C 3.00405 5.35622 2.73096 5.49356 2.32132 5.49356C 1.63858 5.49356 1.22893 5.08155 1.09238 4.66953C 0.955834 4.25751 0.81929 3.70816 0.81929 3.1588C 0.81929 2.74678 0.819286 2.06009 1.09238 1.64807C 1.36548 1.09871 1.91167 0.961373 2.32132 0.961373C 2.73096 0.961373 3.14061 1.09871 3.4137 1.51073C 3.55025 1.78541 3.68679 2.06009 3.68679 2.19743L 3.68679 2.33476L 3.82334 2.33476L 4.64263 2.19743L 4.64263 2.06009C 4.50608 1.51073 4.36953 0.961374 3.95989 0.686696C 3.41369 0.274679 3.00405 0.13734 2.45786 0.13734C 2.04822 0.13734 1.22894 0.137338 0.682744 0.961373C 0.546196 1.23605 4.16711e-06 1.78541 4.16711e-06 3.1588C 4.16711e-06 3.98283 0.136544 4.66953 0.546188 5.35622C 1.09238 6.3176 1.91167 6.45494 2.45786 6.45494C 2.86751 6.45494 3.41369 6.3176 3.95989 5.76824C 4.36953 5.35622 4.50608 4.94421 4.64263 4.39485L 4.64263 4.25751L 3.68679 4.12017ZM 7.10049 3.57082L 5.46192 0.13734L 4.50608 0.13734L 6.5543 4.53219C 6.5543 4.66953 6.41776 5.08155 6.14466 5.21888C 6.00811 5.35622 5.87156 5.49356 5.59847 5.49356C 5.46192 5.49356 5.46191 5.49356 5.32537 5.49356L 5.18882 5.49356L 5.18882 6.04292C 5.32537 6.04292 5.46192 6.18026 5.59847 6.18026C 5.87156 6.18026 6.2812 6.04292 6.5543 5.76824C 6.96394 5.49356 7.10049 4.94421 7.23704 4.53219L 9.01217 0.13734L 8.46597 0.13734L 7.10049 3.57082ZM 9.83145 6.04292L 10.6507 6.04292L 10.6507 0.824036L 13.1086 0.824036L 13.1086 6.04292L 13.9279 6.04292L 13.9279 5.23907e-07L 9.83145 5.23907e-07L 9.83145 6.04292ZM 16.2492 3.29614L 18.5705 3.29614L 18.5705 2.60944L 16.2492 2.60944L 16.2492 0.961373L 19.2533 0.961373L 19.2533 0.13734L 15.4299 0.13734L 15.4299 6.04292L 19.3898 6.04292L 19.3898 5.21888L 16.3858 5.21888L 16.3858 3.29614L 16.2492 3.29614ZM 23.6228 0.549356C 23.2132 0.137339 22.5304 0.13734 22.1208 0.13734L 20.0725 0.13734L 20.0725 6.04292L 20.8918 6.04292L 20.8918 3.70815L 22.1208 3.70815C 22.5304 3.70815 23.0766 3.70816 23.6228 3.29614C 23.7593 3.1588 24.169 2.74678 24.169 1.92275C 24.3055 1.23605 23.8959 0.686695 23.6228 0.549356ZM 23.0766 2.74678C 22.8035 3.02146 22.3939 3.02146 22.1208 3.02146L 21.0284 3.02146L 21.0284 0.961373L 22.1208 0.961373C 22.3939 0.961373 22.8035 0.961374 23.0766 1.23605C 23.2131 1.37339 23.3497 1.51073 23.3497 1.92275C 23.3497 2.19743 23.2131 2.4721 23.0766 2.74678ZM 27.9923 4.66953L 26.3538 0.13734L 25.1248 0.13734L 25.1248 6.04292L 25.9441 6.04292L 25.9441 1.23605L 27.5827 6.04292L 28.1289 6.04292L 29.904 1.23605L 29.904 6.04292L 30.7233 6.04292L 30.7233 5.23907e-07L 29.4944 5.23907e-07L 27.9923 4.66953ZM 34.4101 0.13734L 33.4543 0.13734L 31.5426 6.04292L 32.3619 6.04292L 32.9081 4.39485L 34.8197 4.39485L 35.3659 6.04292L 36.3218 6.04292L 36.3218 5.90558L 34.4101 0.13734ZM 33.0446 3.70815L 33.8639 1.23605L 34.6832 3.70815L 33.0446 3.70815ZM 40.4182 0.549356C 40.0086 0.137339 39.3258 0.13734 38.9162 0.13734L 36.868 0.13734L 36.868 6.04292L 37.6872 6.04292L 37.6872 3.70815L 38.7796 3.70815C 39.1893 3.70815 39.7355 3.70816 40.2817 3.29614C 40.4182 3.1588 40.8278 2.74678 40.8278 1.92275C 41.1009 1.23605 40.6913 0.686695 40.4182 0.549356ZM 39.872 2.74678C 39.5989 3.02146 39.1893 3.02146 38.9162 3.02146L 37.8238 3.02146L 37.8238 0.961373L 38.9162 0.961373C 39.1893 0.961373 39.5989 0.961374 39.872 1.23605C 40.0086 1.37339 40.1451 1.51073 40.1451 1.92275C 40.1451 2.19743 40.0086 2.4721 39.872 2.74678ZM 45.7436 5.35622C 45.607 5.35622 45.4705 5.21888 45.4705 5.08155C 45.1974 4.39485 45.1974 3.98283 45.0608 3.57082C 44.9243 3.43348 44.7877 3.02146 44.3781 2.88412C 44.6512 2.74678 44.7877 2.4721 44.9243 2.19743C 45.0608 1.78541 45.0608 1.09871 45.3339 0.961373C 45.3339 0.824033 45.4705 0.824036 45.607 0.824036C 45.607 0.824036 45.607 0.824036 45.7436 0.824036L 45.8801 0.824036L 45.8801 0.13734C 45.8801 0.13734 45.7436 0.13734 45.607 0.13734C 45.3339 0.13734 44.9243 0.274679 44.6512 0.824036C 44.5146 1.23605 44.3781 2.06009 44.2415 2.33476C 43.9684 2.60944 43.6953 2.74678 43.4222 2.74678L 42.7395 2.74678L 42.7395 0.274677L 41.9202 0.274677L 41.9202 6.04292L 42.7395 6.04292L 42.7395 3.29614L 43.4222 3.29614C 43.8319 3.29614 44.2415 3.29614 44.3781 3.70815C 44.5146 3.84549 44.5146 4.12017 44.6512 4.53219C 44.7877 4.94421 44.7877 5.35623 45.0608 5.6309C 45.3339 6.04292 45.607 6.18026 45.8801 6.18026C 46.0167 6.18026 46.1532 6.18026 46.2898 6.04292L 46.2898 5.35622L 45.7436 5.35622C 45.8801 5.35622 45.7436 5.35622 45.7436 5.35622ZM 47.6552 3.29614L 49.9766 3.29614L 49.9766 2.60944L 47.6552 2.60944L 47.6552 0.961373L 50.6593 0.961373L 50.6593 0.13734L 46.8359 0.13734L 46.8359 6.04292L 50.7958 6.04292L 50.7958 5.21888L 47.7918 5.21888L 47.7918 3.29614L 47.6552 3.29614ZM 50.9324 0.13734L 50.9324 0.961373L 52.571 0.961373L 52.571 6.04292L 53.3903 6.04292L 53.3903 0.824036L 55.0288 0.824036L 55.0288 5.23907e-07L 50.9324 5.23907e-07L 50.9324 0.13734Z"/>
<path id="path5_fill" d="M 6.8274 -2.61954e-07C 6.69085 -2.61954e-07 6.41776 -2.61954e-07 6.28121 -2.61954e-07C 5.05228 -2.61954e-07 3.95989 0.412017 3.1406 0.961373L 3.1406 0.549357C 3.1406 0.412018 3.14061 0.137339 2.86751 0.137339L 0.955836 0.137339C 0.409644 0.137339 -1.04178e-06 0.549357 -1.04178e-06 1.09871L -1.04178e-06 3.1588L -1.04178e-06 13.1846C -1.04178e-06 14.97 1.22893 16.0687 2.73096 16.0687L 2.86751 16.0687C 3.00406 16.0687 3.1406 16.0687 3.1406 15.6567L 3.1406 11.2618C 3.82334 11.6738 4.64263 11.9485 5.73501 11.9485C 6.14466 11.9485 6.5543 11.9485 6.8274 11.8112C 8.87562 11.5365 10.6507 9.75108 10.6507 5.76824C 10.7873 2.60944 9.42181 0.274678 6.8274 -2.61954e-07ZM 5.18882 9.75108C 3.95989 9.75108 3.27715 8.7897 3.27715 7.14163L 3.27715 4.66953C 3.27715 3.29614 4.09644 2.33476 5.18882 2.33476C 6.41775 2.33476 7.23704 3.43348 7.23704 6.04292C 7.23704 7.82833 6.8274 9.75108 5.18882 9.75108Z"/>
<path id="path6_fill" d="M 5.59846 -2.61954e-07C 4.50608 -2.61954e-07 3.00405 0.274678 1.63857 1.51073C 1.09238 2.06009 1.94046e-14 3.43348 1.94046e-14 5.90558C 1.94046e-14 7.69099 0.682744 9.33906 1.77513 10.4378C 2.59442 11.1245 3.82334 11.9485 5.59846 11.9485C 7.37359 11.9485 8.73907 11.2618 9.42181 10.4378C 10.5142 9.33906 11.1969 7.82833 11.1969 5.90558C 11.1969 3.57082 9.968 2.06009 9.55836 1.51073C 8.19288 0.274678 6.69085 -2.61954e-07 5.59846 -2.61954e-07ZM 7.23705 8.65236C 6.8274 9.33906 6.14466 9.61374 5.59846 9.61374C 5.05227 9.61374 4.36954 9.33906 3.95989 8.65236C 3.6868 8.24035 3.4137 7.41631 3.4137 5.90558C 3.4137 5.08155 3.4137 3.98283 3.95989 3.1588C 4.36954 2.60944 4.77918 2.19743 5.59846 2.19743C 6.2812 2.19743 6.8274 2.4721 7.23705 3.1588C 7.78324 3.98283 7.78323 5.08155 7.78323 5.90558C 7.78323 7.55365 7.51014 8.24035 7.23705 8.65236Z"/>
<path id="path7_fill" d="M 5.73501 2.4721C 6.41775 2.4721 6.82739 2.74678 7.10049 3.1588C 7.23704 3.29614 7.37359 3.57082 7.37359 3.8455C 7.51014 4.12017 7.64669 4.25751 7.91978 4.25751L 10.2411 4.25751C 10.3776 4.25751 10.5142 4.12017 10.3776 3.98283C 10.1045 3.02146 9.6949 1.92275 8.87562 1.23605C 8.05633 0.412017 6.69085 -2.43963e-15 5.46192 -2.43963e-15C 3.95989 -2.43963e-15 2.73096 0.549356 1.77513 1.37339C 0.95584 2.19743 -1.94046e-14 3.70816 -1.94046e-14 6.04292C -1.94046e-14 7.96567 0.682736 9.61374 1.63857 10.5751C 2.18476 11.1245 3.4137 11.9485 5.32537 11.9485C 7.10049 11.9485 8.19288 11.2618 8.73907 10.7125C 9.42181 10.1631 9.968 9.20172 10.2411 8.10301C 10.2411 7.96567 10.2411 7.82833 10.1045 7.82833L 7.64668 7.82833C 7.37359 7.82833 7.23704 7.96567 7.10049 8.24035C 7.10049 8.24035 7.10049 8.24035 7.10049 8.37769C 7.10049 8.51503 6.96394 8.65236 6.8274 8.7897C 6.41775 9.33906 6.00811 9.4764 5.46192 9.4764C 4.91573 9.4764 4.36954 9.33906 3.95989 8.51502C 3.6868 7.96567 3.4137 7.14163 3.4137 5.76824C 3.4137 3.98283 3.6868 3.29614 3.82335 3.02146C 4.50609 2.88412 5.05227 2.4721 5.73501 2.4721Z"/>
<path id="path8_fill" d="M 5.87156 -2.61954e-07C 4.91573 -2.61954e-07 3.4137 0.13734 2.04822 1.23605C 1.09238 2.06009 1.04178e-06 3.43348 1.04178e-06 5.90558C 1.04178e-06 8.10301 0.81929 9.4764 1.63858 10.3004C 2.45787 11.1245 3.82335 11.9485 5.73502 11.9485C 7.23705 11.9485 8.46597 11.5365 9.42181 10.8498C 10.1045 10.4378 10.7873 9.61374 11.1969 8.37769C 11.1969 8.24035 11.3335 8.10301 11.0604 8.10301L 8.32943 8.10301C 8.19288 8.10301 8.05633 8.24035 7.91978 8.37769C 7.78324 8.65236 7.64669 8.7897 7.51014 8.92704C 7.23704 9.20172 6.69085 9.61374 5.87156 9.61374C 4.77918 9.61374 4.23299 9.06438 3.82334 8.37769C 3.55025 7.82833 3.4137 7.14163 3.4137 6.59228L 10.9238 6.59228C 11.1969 6.59228 11.3335 6.3176 11.3335 5.90558C 11.3335 5.90558 11.3335 5.90558 11.3335 5.76824C 11.3335 3.84549 10.6507 2.60944 9.968 1.78541C 9.28526 0.961374 7.91978 -2.61954e-07 5.87156 -2.61954e-07ZM 3.55025 4.66953C 3.55025 3.98283 3.82334 3.29614 4.23299 2.88412C 4.64263 2.4721 5.18882 2.19743 5.87156 2.19743C 6.69085 2.19743 7.23704 2.60944 7.51014 3.02146C 7.78324 3.43348 7.91978 4.12017 7.91978 4.66953L 3.55025 4.66953Z"/>
<path id="path9_fill" d="M 9.14871 7.69099C 8.46597 6.18026 7.78323 5.35622 7.23704 5.21888C 7.23704 5.21888 8.05633 5.21889 8.60252 3.70816C 8.73907 3.1588 9.28526 1.92275 9.69491 1.23605C 9.83146 0.961374 9.96801 0.686695 10.2411 0.412017L 10.2411 0.274679C 10.2411 0.13734 10.1045 1.30977e-07 9.968 1.30977e-07L 7.64669 1.30977e-07C 6.96395 1.30977e-07 6.69085 0.549357 6.5543 0.961374C 6.14466 1.78541 6.00811 2.19742 5.59847 3.43348C 5.32537 3.98283 4.91573 4.53219 3.95989 4.53219L 3.27715 4.53219L 3.27715 0.412017C 3.27715 0.274678 3.27715 1.30977e-07 3.00406 1.30977e-07L 0.955836 1.30977e-07C 0.409644 1.30977e-07 -1.04178e-06 0.412018 -1.04178e-06 0.961374L -1.04178e-06 9.75107C -1.04178e-06 10.0258 2.08559e-06 10.3004 0.13655 10.7124C 0.409646 11.2618 0.819287 11.6738 1.36548 11.6738L 2.86751 11.6738C 3.27715 11.6738 3.4137 11.5365 3.4137 11.1245L 3.4137 6.45494L 3.95989 6.45494C 5.18882 6.45494 5.87156 7.96567 6.28121 8.92704C 6.8274 9.88841 7.64669 11.5365 9.14871 11.5365L 10.9238 11.5365C 11.0604 11.5365 11.1969 11.3991 11.1969 11.2618L 11.1969 11.1245C 10.7873 10.4378 9.83145 8.7897 9.14871 7.69099Z"/>
<path id="path10_fill" d="M 10.2411 0L 1.09238 0C 0.546192 0 1.04178e-06 0.549357 1.04178e-06 1.09871C 1.04178e-06 1.09871 1.04178e-06 11.6738 1.04178e-06 11.8112C 1.04178e-06 12.2232 -5.29028e-07 12.6352 0.273095 13.1846C 0.682739 14.1459 1.50203 14.6953 2.59441 14.8326L 3.00406 14.8326C 3.27715 14.8326 3.27715 14.6953 3.27715 14.4206L 3.27715 3.57082C 3.27715 3.29614 3.55025 3.1588 3.68679 3.1588L 7.51014 3.1588C 7.78324 3.1588 7.91978 3.29614 7.91978 3.57082C 7.91978 3.57082 7.91978 11.6738 7.91978 11.8112C 7.91978 12.2232 7.91978 12.6352 8.19288 13.1846C 8.60252 14.1459 9.42181 14.6953 10.5142 14.8326L 10.9238 14.8326C 11.1969 14.8326 11.1969 14.6953 11.1969 14.4206L 11.1969 1.09871C 11.3335 0.549357 10.9238 0 10.2411 0Z"/>
<path id="path11_fill" d="M 11.3335 0.274678C 11.3335 0.137339 11.3335 2.61954e-07 11.0604 2.61954e-07L 0.273092 2.61954e-07C -4.17118e-06 2.61954e-07 1.94046e-14 0.137339 1.94046e-14 0.274678C 0.273096 1.37339 1.09238 2.4721 2.32131 2.4721L 3.55025 2.4721C 3.82334 2.4721 3.95989 2.74678 3.95989 3.02146L 3.95989 8.92704C 3.95989 9.33906 3.95989 9.61374 4.23299 10.0258C 4.64263 10.9871 5.46192 11.5365 6.55431 11.6738L 6.96394 11.6738C 7.23704 11.6738 7.37359 11.5365 7.37359 11.2618L 7.37359 3.02146C 7.37359 2.74678 7.64668 2.60944 7.78323 2.4721L 9.01217 2.4721C 10.2411 2.33476 10.9238 1.37339 11.3335 0.274678Z"/>
<path id="path12_fill" d="M 11.1969 11.1245C 10.7873 10.4378 9.83145 8.7897 9.14871 7.69099C 8.46597 6.18026 7.78323 5.35622 7.23704 5.21888C 7.23704 5.21888 8.05633 5.21889 8.60252 3.70816C 8.73907 3.1588 9.28526 1.92275 9.69491 1.23605C 9.83145 0.961374 9.968 0.686695 10.2411 0.412017L 10.2411 0.274679C 10.2411 0.13734 10.1045 1.30977e-07 9.968 1.30977e-07L 7.64669 1.30977e-07C 6.96395 1.30977e-07 6.69085 0.549357 6.5543 0.961374C 6.14465 1.78541 6.00811 2.19742 5.59847 3.43348C 5.32537 3.98283 4.91573 4.53219 3.9599 4.53219L 3.27716 4.53219L 3.27716 0.412017C 3.27716 0.274678 3.27715 1.30977e-07 3.00405 1.30977e-07L 0.955834 1.30977e-07C 0.409642 1.30977e-07 2.08356e-06 0.412018 2.08356e-06 0.961374L 2.08356e-06 9.75107C 2.08356e-06 10.0258 0 10.3004 0.136548 10.7124C 0.409644 11.2618 0.81929 11.6738 1.36548 11.6738L 2.86751 11.6738C 3.27715 11.6738 3.4137 11.5365 3.4137 11.1245L 3.4137 6.45494L 3.9599 6.45494C 5.18883 6.45494 5.87156 7.96567 6.28121 8.92704C 6.8274 9.88841 7.64668 11.5365 9.14871 11.5365L 10.9238 11.5365C 11.1969 11.3991 11.3335 11.3991 11.1969 11.1245C 11.3335 11.1245 11.3335 11.1245 11.1969 11.1245Z"/>
<path id="path13_fill" d="M 6.8274 -2.61954e-07C 6.69085 -2.61954e-07 6.41776 -2.61954e-07 6.28121 -2.61954e-07C 5.05228 -2.61954e-07 3.95989 0.412017 3.27715 0.961373L 3.27715 0.549357C 3.27715 0.412018 3.27715 0.137339 3.00406 0.137339L 0.955836 0.137339C 0.409644 0.137339 4.16711e-06 0.549357 4.16711e-06 1.09871L 4.16711e-06 3.1588L 4.16711e-06 13.1846C 4.16711e-06 14.97 1.22894 16.0687 2.73096 16.0687L 2.86751 16.0687C 3.00406 16.0687 3.1406 16.0687 3.1406 15.6567L 3.1406 11.2618C 3.82334 11.6738 4.64263 11.9485 5.73501 11.9485C 6.14466 11.9485 6.55431 11.9485 6.8274 11.8112C 8.87562 11.5365 10.6507 9.75108 10.6507 5.76824C 10.7873 2.60944 9.42181 0.274678 6.8274 -2.61954e-07ZM 5.18882 9.75108C 3.95989 9.75108 3.27715 8.7897 3.27715 7.14163L 3.27715 4.66953C 3.27715 3.29614 4.09644 2.33476 5.18882 2.33476C 6.41775 2.33476 7.23704 3.43348 7.23704 6.04292C 7.23704 7.82833 6.8274 9.75108 5.18882 9.75108Z"/>
<path id="path14_fill" d="M 5.87156 -2.61954e-07C 4.91573 -2.61954e-07 3.4137 0.13734 2.04822 1.23605C 1.09238 2.06009 -4.16711e-06 3.43348 -4.16711e-06 5.90558C -4.16711e-06 8.10301 0.81929 9.4764 1.63858 10.3004C 2.45787 11.1245 3.82335 11.9485 5.73502 11.9485C 7.23705 11.9485 8.46597 11.5365 9.42181 10.8498C 10.1045 10.4378 10.7873 9.61374 11.1969 8.37769C 11.1969 8.24035 11.3335 8.10301 11.0604 8.10301L 8.32943 8.10301C 8.19288 8.10301 8.05633 8.24035 7.91978 8.37769C 7.78324 8.65236 7.64668 8.7897 7.51014 8.92704C 7.23704 9.20172 6.69085 9.61374 5.87156 9.61374C 4.77918 9.61374 4.23299 9.06438 3.82334 8.37769C 3.55025 7.82833 3.4137 7.14163 3.4137 6.59228L 10.9238 6.59228C 11.1969 6.59228 11.3335 6.3176 11.3335 5.90558C 11.3335 3.98283 10.6507 2.74678 9.968 1.92275C 9.42181 0.961374 8.05633 -2.61954e-07 5.87156 -2.61954e-07ZM 3.55025 4.66953C 3.55025 3.98283 3.82335 3.29614 4.23299 2.88412C 4.64264 2.4721 5.18882 2.19743 5.87156 2.19743C 6.69085 2.19743 7.23704 2.60944 7.51014 3.02146C 7.78323 3.43348 7.91978 4.12017 7.91978 4.66953L 3.55025 4.66953Z"/>
<path id="path15_fill" d="M 7.10049 2.61954e-07L 1.77512 2.61954e-07L -9.70232e-15 2.61954e-07C -9.70232e-15 2.06009 2.04822 2.74678 3.55024 2.74678L 8.32942 2.74678L 10.6507 2.74678C 10.6507 0.824035 8.60252 2.61954e-07 7.10049 2.61954e-07Z"/>
<path id="path16_fill" d="M 7.10049 5.23907e-07L 1.77512 5.23907e-07L -9.70232e-15 5.23907e-07C -9.70232e-15 2.06009 2.04822 2.74678 3.55024 2.74678L 8.32942 2.74678L 10.6507 2.74678C 10.6507 0.686696 8.60252 5.23907e-07 7.10049 5.23907e-07Z"/>
<path id="path17_fill" d="M 7.10049 2.61954e-07L 1.77512 2.61954e-07L -9.70232e-15 2.61954e-07C -9.70232e-15 2.06009 2.04822 2.74678 3.55024 2.74678L 8.32942 2.74678L 10.6507 2.74678C 10.6507 0.686695 8.60252 2.61954e-07 7.10049 2.61954e-07Z"/>
</defs>
</svg>
