<svg xmlns="http://www.w3.org/2000/svg" width="155" height="24" fill="none" viewBox="0 0 155 24">
    <path fill="#477675" fill-rule="evenodd" d="M72.513 15.412H67.78c-1.014 0-2.366-.473-2.366-1.859H70.147c1.014 0 2.366.473 2.366 1.86zm56.356-2.096h-1.69a.23.23 0 0 0-.237.237v1.623a.23.23 0 0 0 .237.236h1.656a.231.231 0 0 0 .237-.236v-1.623c0-.135-.102-.237-.203-.237zM70.18 7.705H65.447c0 1.386 1.353 1.859 2.367 1.859H72.547c-.034-1.386-1.386-1.86-2.367-1.86zm0 2.907H65.447c0 1.386 1.353 1.86 2.367 1.86H72.547c-.034-1.353-1.386-1.86-2.367-1.86zm-20.047.845c0 2.603-1.217 3.786-2.535 3.99a5.05 5.05 0 0 1-.744.067c-.744 0-1.285-.203-1.724-.473v2.873c0 .203-.102.27-.203.27h-.101c-1.015 0-1.826-.71-1.826-1.859V8.313c0-.338.304-.608.642-.642h1.285c.237 0 .169.169.169.27v.237a4.355 4.355 0 0 1 2.028-.609c.136 0 .237 0 .372.034 1.724.135 2.637 1.724 2.637 3.854zm-2.333.068c0-1.724-.54-2.434-1.386-2.434-.777 0-1.284.676-1.284 1.589v1.656c0 1.048.507 1.69 1.284 1.69 1.116-.033 1.386-1.217 1.386-2.501zm68.425-2.806c.372.372 1.15 1.284 1.15 2.907 0 1.217-.474 2.299-1.184 3.009-.507.507-1.386.98-2.569.98-1.217 0-2.062-.473-2.569-.98-.71-.676-1.183-1.792-1.183-3.009 0-1.589.777-2.535 1.149-2.907.879-.88 1.893-1.048 2.637-1.048.676 0 1.69.169 2.569 1.048zm-1.183 2.873c0-.574-.034-1.284-.406-1.86-.27-.405-.574-.608-1.048-.608-.473 0-.811.203-1.048.609-.372.54-.372 1.285-.372 1.86 0 1.014.169 1.52.338 1.825.271.473.71.642 1.116.642.406 0 .811-.135 1.116-.642.135-.304.304-.778.304-1.826zM57.807 8.955c.44.541.846 1.42.88 2.671v.068c0 .27-.068.372-.271.405h-5.004c0 .406.068.88.27 1.217.237.44.643.812 1.353.812.541 0 .913-.237 1.116-.44a.875.875 0 0 0 .236-.372c.034-.067.136-.169.237-.169h1.792c.169 0 .135.136.101.203a3.06 3.06 0 0 1-1.183 1.59c-.609.405-1.42.675-2.434.675-1.25 0-2.164-.507-2.738-1.048-.508-.507-1.082-1.453-1.082-2.873 0-1.657.744-2.603 1.352-3.11.879-.744 1.826-.846 2.502-.846 1.453-.067 2.366.609 2.873 1.217zm-1.42 1.86c0-.372-.101-.778-.304-1.082a1.357 1.357 0 0 0-1.15-.575c-.473 0-.878.203-1.149.474-.236.27-.405.71-.405 1.149h3.008v.034zm37.593-1.86c.44.541.846 1.42.88 2.671v.068c0 .27-.068.372-.271.405h-4.97c0 .406.068.88.27 1.217.237.44.643.812 1.353.812.541 0 .913-.237 1.116-.44a.875.875 0 0 0 .236-.372c.034-.067.136-.169.237-.169h1.792c.169 0 .135.136.101.203a3.06 3.06 0 0 1-1.183 1.59c-.609.405-1.42.675-2.434.675-1.251 0-2.164-.507-2.739-1.048-.507-.507-1.081-1.453-1.081-2.873 0-1.657.743-2.603 1.352-3.11.879-.744 1.826-.846 2.502-.846 1.42-.067 2.332.609 2.84 1.217zm-1.42 1.86c0-.372-.1-.778-.304-1.082a1.357 1.357 0 0 0-1.15-.575c-.472 0-.878.203-1.149.474-.236.27-.405.71-.405 1.149h3.008v.034zm-12.643 2.062c-.474-.98-.913-1.589-1.319-1.657 0 0 .541-.033.913-1.014.135-.338.474-1.183.71-1.656.102-.17.237-.372.372-.575.034-.034.034-.068.034-.101 0-.102-.068-.17-.135-.17h-1.556c-.439 0-.642.339-.777.677-.237.54-.338.879-.642 1.589-.17.338-.44.743-1.082.743h-.44V5.27c0-.101.034-.27-.169-.27H74.44c-.372.034-.642.304-.676.609v8.553c0 .169 0 .405.102.608.135.338.473.609.845.609h.98c.27 0 .304-.136.304-.338v-3.077h.406c.845 0 1.217.98 1.589 1.657.338.642.913 1.758 1.96 1.724h1.218c.067 0 .135-.068.135-.17 0-.033 0-.067-.034-.067a31.714 31.714 0 0 1-1.352-2.231zm44.557 0c-.473-.98-.913-1.589-1.318-1.657 0 0 .54-.033.912-1.014.136-.338.474-1.183.71-1.656.102-.17.237-.372.372-.575.034-.034.034-.068.034-.101 0-.102-.068-.17-.135-.17h-1.555c-.44 0-.643.339-.778.677-.237.54-.338.879-.642 1.589-.169.338-.44.743-1.082.743h-.44V5.27c0-.101.034-.27-.169-.27h-1.386c-.372.034-.642.304-.676.609v8.553c0 .169 0 .405.102.608.135.338.473.609.845.609h.98c.271 0 .304-.136.304-.338v-3.077h.406c.845 0 1.217.98 1.589 1.657.338.642.913 1.758 1.961 1.724h1.217c.067 0 .135-.068.135-.17 0-.033 0-.067-.034-.067a31.954 31.954 0 0 1-1.352-2.231zM99.998 10.68l-1.25-.17c-.407-.067-.981-.202-.981-.71 0-.168.101-.439.405-.608.136-.068.372-.135.812-.135.338 0 .71.034 1.048.304.169.135.338.338.439.541.034.068.102.101.169.068l1.488-.305c.101-.033.135-.135.101-.203a2.593 2.593 0 0 0-.811-1.081c-.744-.609-1.59-.676-2.333-.676-.71 0-1.622.101-2.299.54-.642.44-1.014 1.116-1.014 1.86 0 .743.338 1.25.71 1.589.541.473 1.285.642 1.927.743l1.082.17c.44.067 1.048.168 1.048.743a.656.656 0 0 1-.304.575c-.27.169-.846.237-1.116.237-.473 0-.98-.136-1.319-.372a1.42 1.42 0 0 1-.439-.609.186.186 0 0 0-.169-.101l-1.555.236c-.102 0-.17.136-.135.203.135.338.44.88 1.014 1.319.845.608 1.86.71 2.57.71.878 0 1.859-.17 2.568-.643.474-.338.981-.912.981-1.893 0-.71-.271-1.217-.609-1.521-.574-.541-1.42-.71-2.028-.811zm42.765-3.01h-1.859c-.101 0-.203.102-.203.204v4.192c0 .405-.034.879-.338 1.25-.27.338-.642.507-1.014.507-.304 0-.609-.135-.778-.338-.27-.338-.27-.878-.27-1.183V7.874c0-.102-.102-.203-.203-.203h-.676a1.37 1.37 0 0 0-1.386 1.386v3.617c0 .812.101 1.69.879 2.333.405.338.913.54 1.623.54 1.149 0 1.927-.608 2.332-1.52h.034c0 .777.609 1.385 1.386 1.385h.507a.218.218 0 0 0 .203-.202V7.874c-.034-.102-.135-.203-.237-.203zm-78.499.406v-.27s0-.17-.169-.203h-.372c-.71.034-1.149.406-1.386.642-.202.203-.473.609-.574 1.217h-.034V7.84c0-.102-.068-.17-.17-.17h-1.047a.75.75 0 0 0-.744.744v6.322a.75.75 0 0 0 .744.744h1.352c.102 0 .17-.068.17-.169v-3.38c0-.812.1-1.556.844-2.029.305-.17.643-.27 1.048-.27h.135c.271.033.237-.237.237-.237V8.076h-.034zm22.482 0v-.27s0-.17-.17-.203h-.371c-.71.034-1.15.406-1.386.642-.203.203-.474.609-.575 1.217h-.034V7.84c0-.102-.067-.17-.169-.17h-1.048a.75.75 0 0 0-.743.744v6.322a.75.75 0 0 0 .743.744h1.353c.1 0 .168-.068.168-.169v-3.38c0-.812.102-1.556.846-2.029.304-.17.642-.27 1.048-.27h.135c.27.033.237-.237.237-.237V8.076h-.034zm48.073 0v-.27s0-.17-.169-.203h-.372c-.71.034-1.15.406-1.386.642-.203.203-.473.609-.575 1.217h-.034v-1.52c0-.102-.067-.17-.169-.17h-1.622c-.102 0-.169.068-.169.17v7.403c0 .101.067.169.169.169h1.927c.101 0 .169-.068.169-.17v-3.38c0-.811.101-1.555.845-2.028.304-.17.642-.27 1.014-.27h.135c.271.033.237-.237.237-.237V8.076zm-25.186-.338h-2.502V5.27c0-.101.034-.27-.169-.27h-1.386c-.372.034-.642.304-.642.609v2.13H102.5c-.136 0-.169.1-.136.168.237.744.778 1.42 1.522 1.454h.777c.136 0 .237.101.271.237v3.651s0 .676.135 1.082c.068.236.203.44.372.608.507.541 1.251.643 1.825.643.44 0 1.015-.034 1.522-.102.101 0 .135-.101.135-.169v-1.318c0-.102-.101-.203-.203-.17a4.619 4.619 0 0 1-.642.068c-.237 0-.507-.034-.71-.236-.237-.271-.237-.609-.237-.88V9.733c0-.17.135-.304.304-.338h.778c.778-.034 1.318-.71 1.521-1.454.068-.101.068-.203-.101-.203z" clip-rule="evenodd"/>
    <path stroke="#477675" stroke-linecap="round" stroke-linejoin="round" stroke-miterlimit="10" stroke-width="1.4" d="M29.348 16.914h4.603c.366 0 .671-.305.671-.67v-5.488M18.372 16.915H24.5M17.732 8.683h-1.25a.692.692 0 0 0-.488.183l-3.72 3.262c-.152.152-.274.366-.274.579v3.537c0 .365.305.67.67.67h.854M15.933 18.744a1.768 1.768 0 1 0 0-3.537 1.768 1.768 0 0 0 0 3.537zM26.909 18.744a1.768 1.768 0 1 0 0-3.537 1.768 1.768 0 0 0 0 3.537zM37 7.128h-2.408v-.457A.677.677 0 0 0 33.92 6H19.317a.677.677 0 0 0-.67.67v3.781M36.42 8.652h-1.798v-.975M35.75 10.177h-1.128V9.2"/>
    <path stroke="#477675" stroke-linecap="round" stroke-linejoin="round" stroke-miterlimit="10" stroke-width="1.4" d="M16.42 9.506v3.049h-3.475"/>
</svg>
