<svg xmlns="http://www.w3.org/2000/svg" width="40" height="40" fill="none" viewBox="0 0 40 40">
    <rect width="34" height="34" x="3" y="3" stroke="#005826" stroke-width="1.25" rx="17"/>
    <path stroke="#005826" stroke-linecap="round" stroke-linejoin="round" stroke-miterlimit="10" stroke-width="1.5" d="M29 29c-2.939-1.275-5.878-2.805-6.122-3.698v-1.275c.857-.893 1.469-2.04 1.836-3.443.857-.638 1.102-2.04.368-2.933v-2.805c0-2.933-1.592-4.846-5.143-4.846-3.429 0-5.143 2.04-5.143 4.846v2.805c-.735.893-.49 2.295.367 2.933.368 1.403.98 2.55 1.837 3.443v1.275c-.245.893-3.061 2.295-6 3.698"/>
</svg>
