<svg xmlns="http://www.w3.org/2000/svg" width="24" height="24" fill="none" viewBox="0 0 24 24">
    <circle cx="12" cy="12" r="12"/>
    <path fill="#A3B7BD" d="M11.618 7.524c-.432 0-.84.054-1.224.162-.384.108-.81.282-1.278.522L8.36 6.174c.468-.3 1.02-.528 1.656-.684a7.311 7.311 0 0 1 1.872-.252c.768 0 1.398.102 1.89.306.504.204.9.462 1.188.774.288.312.486.654.594 1.026.12.372.18.726.18 1.062 0 .336-.054.648-.162.936a3.56 3.56 0 0 1-.378.774c-.156.24-.336.468-.54.684-.204.216-.402.42-.594.612-.144.144-.294.3-.45.468-.156.156-.3.324-.432.504-.12.18-.222.372-.306.576-.084.192-.126.39-.126.594v.216c0 .096.006.18.018.252h-2.376a3.515 3.515 0 0 1-.054-.396v-.396c0-.336.042-.636.126-.9.084-.276.192-.528.324-.756.144-.24.306-.462.486-.666.18-.204.366-.402.558-.594.276-.276.528-.546.756-.81a1.43 1.43 0 0 0 .342-.936.956.956 0 0 0-.342-.738c-.216-.204-.54-.306-.972-.306zm1.674 9.054c0 .528-.174.936-.522 1.224a1.72 1.72 0 0 1-1.152.432c-.432 0-.822-.144-1.17-.432-.336-.288-.504-.696-.504-1.224s.168-.936.504-1.224a1.788 1.788 0 0 1 1.17-.432c.432 0 .816.144 1.152.432.348.288.522.696.522 1.224z"/>
</svg>
