<svg xmlns="http://www.w3.org/2000/svg" width="24" height="24" fill="#A3B7BD" viewBox="0 0 24 24">
    <path fill-rule="evenodd" d="M2.25 6A2.75 2.75 0 0 1 5 3.25h14A2.75 2.75 0 0 1 21.75 6v9.136a2.75 2.75 0 0 1-2.75 2.75h-1.208V21a.75.75 0 0 1-1.224.582l-4.543-3.696H5a2.75 2.75 0 0 1-2.75-2.75V6zM5 4.75c-.69 0-1.25.56-1.25 1.25v9.136c0 .69.56 1.25 1.25 1.25h7.558l3.734 3.037v-3.037H19c.69 0 1.25-.56 1.25-1.25V6c0-.69-.56-1.25-1.25-1.25H5z" clip-rule="evenodd"/>
    <path d="M12.01 8.18a2.5 2.5 0 0 0-.68.09c-.213.06-.45.157-.71.29l-.42-1.13a3.03 3.03 0 0 1 .92-.38c.354-.093.7-.14 1.04-.14.427 0 .777.057 1.05.17.28.113.5.257.66.43.16.173.27.363.33.57.067.207.1.403.1.59 0 .187-.03.36-.09.52a1.975 1.975 0 0 1-.21.43 2.69 2.69 0 0 1-.3.38c-.113.12-.223.233-.33.34a9.72 9.72 0 0 0-.25.26c-.086.087-.166.18-.24.28-.067.1-.123.207-.17.32a.814.814 0 0 0-.07.33v.12c0 .053.003.1.01.14h-1.32a1.97 1.97 0 0 1-.03-.22v-.22c0-.186.023-.353.07-.5a1.994 1.994 0 0 1 .45-.79c.1-.113.204-.223.31-.33a8.48 8.48 0 0 0 .42-.45.795.795 0 0 0 .19-.52.53.53 0 0 0-.19-.41c-.12-.113-.3-.17-.54-.17zm.93 5.03c0 .293-.096.52-.29.68-.187.16-.4.24-.64.24a.994.994 0 0 1-.65-.24c-.186-.16-.28-.386-.28-.68 0-.293.094-.52.28-.68.194-.16.41-.24.65-.24.24 0 .454.08.64.24.194.16.29.387.29.68z"/>
</svg>
