<svg xmlns="http://www.w3.org/2000/svg" width="24" height="24" fill="#A3B7BD" viewBox="0 0 24 24">
    <path fill-rule="evenodd" d="M5.75 3.75v14.465l.695-.68a1.27 1.27 0 0 1 1.777 0l1.445 1.415 1.444-1.415a1.27 1.27 0 0 1 1.778 0l1.444 1.415 1.445-1.415a1.27 1.27 0 0 1 1.777 0l.695.68V3.75H5.75zm-1.5-.23c0-.701.569-1.27 1.27-1.27h12.96c.701 0 1.27.569 1.27 1.27v15.243c0 1.125-1.355 1.694-2.159.907l-.924-.906-1.445 1.415a1.27 1.27 0 0 1-1.777 0L12 18.764l-1.445 1.415a1.27 1.27 0 0 1-1.777 0l-1.445-1.415-.924.906c-.804.787-2.159.218-2.159-.907V3.52z" clip-rule="evenodd"/>
    <path fill-rule="evenodd" d="M15 7.75H9v-1.5h6v1.5zm0 3H9v-1.5h6v1.5zm0 3H9v-1.5h6v1.5z" clip-rule="evenodd"/>
</svg>
