<svg xmlns="http://www.w3.org/2000/svg" width="24" height="24" fill="#A3B7BD" viewBox="0 0 24 24">
    <path fill-rule="evenodd" d="M11.482 1.458a.75.75 0 0 1 1.036 0l9 8.609A.75.75 0 0 1 21 11.359h-1.598V20a.75.75 0 0 1-.75.75h-4.03a.75.75 0 0 1-.75-.75v-4.728h-3.313V20a.75.75 0 0 1-.75.75H5.348a.75.75 0 0 1-.75-.75v-8.641H3a.75.75 0 0 1-.518-1.292l9-8.609zm-6.613 8.4h.479a.75.75 0 0 1 .75.75v8.642h2.96v-4.728a.75.75 0 0 1 .75-.75h4.814a.75.75 0 0 1 .75.75v4.728h2.53v-8.641a.75.75 0 0 1 .75-.75h.479L12 3.038l-7.13 6.82z" clip-rule="evenodd"/>
</svg>
