<svg xmlns="http://www.w3.org/2000/svg" width="24" height="24" fill="#A3B7BD" viewBox="0 0 24 24">
    <path fill-rule="evenodd" d="M9.211 4.231c.082-.594.6-.981 1.146-.981h3.29c.543 0 1.065.385 1.145.982l.252 1.704c.282.135.552.289.81.46l1.673-.654a.649.649 0 0 1 .023-.009c.471-.167 1.096-.024 1.4.506l1.642 2.762.009.017a1.147 1.147 0 0 1-.295 1.472l-.004.003-1.4 1.064a5.707 5.707 0 0 1 0 .886l1.403 1.066c.464.357.569.987.296 1.474l-.01.016-1.64 2.762c-.293.51-.903.695-1.416.5l-.008-.002-1.676-.655a7.12 7.12 0 0 1-.807.459l-.252 1.705c-.08.597-.602.982-1.145.982h-3.29c-.546 0-1.064-.387-1.146-.981l-.251-1.705a6.795 6.795 0 0 1-.81-.459l-1.674.654a.883.883 0 0 1-.022.008c-.473.168-1.096.024-1.4-.506L3.413 15l-.01-.017a1.146 1.146 0 0 1 .298-1.475l1.4-1.066a5.828 5.828 0 0 1 0-.884l-1.399-1.065-.003-.002c-.441-.339-.6-.971-.285-1.493l1.64-2.759c.291-.507.9-.697 1.418-.499l.004.002 1.677.655c.255-.168.523-.323.807-.46l.251-1.706zm1.44.519l-.268 1.816a.75.75 0 0 1-.464.587c-.43.172-.836.41-1.225.693a.75.75 0 0 1-.715.093L6.2 7.245 4.865 9.493l1.48 1.126a.75.75 0 0 1 .29.693c-.03.239-.051.469-.051.688 0 .22.02.449.05.688a.75.75 0 0 1-.289.693l-1.48 1.126 1.336 2.25 1.778-.695a.75.75 0 0 1 .722.098c.378.283.782.513 1.219.688a.75.75 0 0 1 .463.587l.268 1.815h2.701l.268-1.815a.75.75 0 0 1 .464-.587c.432-.172.838-.41 1.227-.694a.75.75 0 0 1 .714-.092l1.778.694 1.336-2.249-1.48-1.126a.75.75 0 0 1-.29-.693c.03-.241.051-.462.051-.688 0-.226-.02-.447-.052-.688a.75.75 0 0 1 .29-.693l1.481-1.126-1.336-2.249-1.778.695a.75.75 0 0 1-.722-.098 5.284 5.284 0 0 0-1.218-.688.75.75 0 0 1-.465-.587l-.268-1.816h-2.701zm2.655-.32v0zm4.342 2.553l.005.009a.252.252 0 0 1-.005-.009zm0 10.034l.005-.008-.005.008zm-4.342 2.553v-.01.01zm-6.95-2.553l-.004-.008a.604.604 0 0 1 .004.008zm0-10.034a.408.408 0 0 1-.004.008l.004-.008zm5.646 2.637c-1.38 0-2.468 1.088-2.468 2.38 0 1.292 1.088 2.38 2.468 2.38S14.47 13.292 14.47 12c0-1.292-1.088-2.38-2.468-2.38zm0 6.26c-2.169 0-3.968-1.72-3.968-3.88s1.8-3.88 3.968-3.88c2.169 0 3.968 1.72 3.968 3.88s-1.8 3.88-3.968 3.88z" clip-rule="evenodd"/>
</svg>
