<svg xmlns="http://www.w3.org/2000/svg" width="24" height="24" fill="#A3B7BD" viewBox="0 0 24 24">
    <path fill-rule="evenodd" d="M4.25 9.083C4.25 4.77 7.718 1.25 12 1.25c4.281 0 7.75 3.519 7.75 7.833 0 3.651-1.714 6.95-3.401 9.321-1.695 2.384-3.425 3.92-3.585 4.06l-.006.005a1.163 1.163 0 0 1-1.516 0l-.007-.006c-.159-.14-1.889-1.675-3.584-4.059-1.687-2.372-3.401-5.67-3.401-9.32zM12 2.75c-3.438 0-6.25 2.831-6.25 6.333 0 3.2 1.514 6.189 3.123 8.452A24.588 24.588 0 0 0 12 21.131c.52-.485 1.835-1.779 3.127-3.596 1.61-2.263 3.123-5.253 3.123-8.452 0-3.502-2.813-6.333-6.25-6.333zm0 4.348c-1.04 0-1.875.836-1.875 1.859 0 1.022.835 1.858 1.875 1.858s1.875-.836 1.875-1.858A1.867 1.867 0 0 0 12 7.097zM8.625 8.957A3.367 3.367 0 0 1 12 5.597c1.86 0 3.375 1.5 3.375 3.36A3.367 3.367 0 0 1 12 12.315c-1.86 0-3.375-1.5-3.375-3.358z" clip-rule="evenodd"/>
</svg>
