<svg xmlns="http://www.w3.org/2000/svg" width="24" height="24" fill="none" viewBox="0 0 24 24">
    <path fill="#477675" d="M21.5 5.3c-.8.5-1.7.8-2.6 1-.7-.8-1.8-1.3-3-1.3-2.3 0-4.1 1.8-4.1 4.1 0 .3 0 .6.1.9-3.4-.1-6.4-1.8-8.4-4.2-.4.6-.6 1.3-.6 2 0 1.4.7 2.7 1.8 3.4-.6 0-1.2-.2-1.8-.5v.1c0 2 1.4 3.6 3.3 4-.3.1-.7.1-1.1.1-.3 0-.5 0-.8-.1.5 1.6 2 2.8 3.8 2.8-1.4 1.1-3.2 1.8-5.1 1.8-.3 0-.7 0-1-.1 1.8 1.2 4 1.8 6.3 1.8 7.6.2 11.8-6.1 11.8-11.5v-.5c.8-.6 1.5-1.3 2-2.1-.7.3-1.5.5-2.4.6.9-.5 1.5-1.3 1.8-2.3z"/>
</svg>
