<svg xmlns="http://www.w3.org/2000/svg" width="24" height="24" fill="none" viewBox="0 0 24 24">
    <path fill="#477675" d="M19.3 12.3s2.9-4.1 3.2-5.4c.1-.5-.1-.7-.6-.7h-2.5c-.6 0-.8.2-1 .6 0 0-1.4 2.9-3 4.7-.5.6-.8.8-1.1.8-.2 0-.3-.2-.3-.7V6.8c0-.7-.1-.8-.6-.8h-4c-.4 0-.6.2-.6.4 0 .6.9.8.9 2.4v3.4c0 .7 0 1-.4 1-.9 0-2.9-3-4.1-6.4-.1-.6-.4-.8-1.1-.8H1.6c-.3 0-.6.2-.6.6 0 .7.8 3.8 3.9 7.9 2.1 2.8 4.8 4.3 7.3 4.3 1.5 0 1.9-.2 1.9-.9v-2.1c0-.5.2-.8.5-.8s1 .1 2.4 1.5c1.7 1.6 1.8 2.3 2.7 2.3h2.8c.3 0 .6-.1.6-.6 0-.6-.8-1.8-2.1-3.1-.5-.7-1.4-1.4-1.6-1.8-.5-.3-.4-.6-.1-1z"/>
</svg>
