<svg xmlns="http://www.w3.org/2000/svg" width="24" height="24" fill="none" viewBox="0 0 24 24">
    <path fill="#477675" fill-rule="evenodd" d="M20.608 4.49c.942.263 1.685 1.035 1.939 2.014.471 1.788.453 5.515.453 5.515s0 3.708-.453 5.496c-.254.98-.997 1.75-1.94 2.014C18.888 20 12 20 12 20s-6.868 0-8.608-.49c-.942-.263-1.685-1.035-1.939-2.014C1 15.728 1 12 1 12s0-3.708.453-5.496c.254-.98 1.015-1.77 1.94-2.033C5.112 4 12 4 12 4s6.886 0 8.608.49zM15.534 12l-5.727 3.426V8.574L15.534 12z" clip-rule="evenodd"/>
</svg>
